<svg version="1.0" preserveAspectRatio="xMidYMid meet" viewBox="56.25 112.4999973 257.25 119.99999712" zoomAndPan="magnify" xmlns:xlink="http://www.w3.org/1999/xlink" xmlns="http://www.w3.org/2000/svg" style="max-height: 500px" width="257.25" height="119.99999712"><defs><g/><clipPath id="d97a5f2f9c"><path clip-rule="nonzero" d="M 61 115.410156 L 180 115.410156 L 180 229.410156 L 61 229.410156 Z M 61 115.410156"/></clipPath></defs><g fill-opacity="1" fill="#2b2b2b"><g transform="translate(168.084537, 181.356077)"><g><path d="M 14.765625 -25.421875 L 25.015625 0 L 18.796875 0 L 16.921875 -5.078125 L 7.234375 -5.078125 L 5.359375 0 L -0.859375 0 L 9.390625 -25.421875 Z M 14.9375 -10.171875 L 12.109375 -17.5625 L 12.046875 -17.5625 L 9.21875 -10.171875 Z M 14.9375 -10.171875"/></g></g></g><g fill-opacity="1" fill="#2b2b2b"><g transform="translate(192.233491, 181.356077)"><g><path d="M 7.640625 -15.78125 L 7.640625 0 L 1.84375 0 L 1.84375 -25.421875 L 7.640625 -25.421875 L 17.75 -9.640625 L 17.8125 -9.640625 L 17.8125 -25.421875 L 23.609375 -25.421875 L 23.609375 0 L 17.8125 0 L 7.703125 -15.78125 Z M 7.640625 -15.78125"/></g></g></g><g fill-opacity="1" fill="#2b2b2b"><g transform="translate(217.676142, 181.356077)"><g><path d="M 7.640625 -25.421875 L 7.640625 0 L 1.84375 0 L 1.84375 -25.421875 Z M 7.640625 -25.421875"/></g></g></g><g fill-opacity="1" fill="#2b2b2b"><g transform="translate(227.163234, 181.356077)"><g><path d="M 1.84375 -11.28125 L 11.765625 -11.28125 L 11.765625 -6.5625 L 1.84375 -6.5625 Z M 1.84375 -11.28125"/></g></g></g><g fill-opacity="1" fill="#2b2b2b"><g transform="translate(240.777825, 181.356077)"><g><path d="M 1.84375 -25.421875 L 11.125 -25.421875 C 13.707031 -25.421875 15.800781 -24.753906 17.40625 -23.421875 C 19.007812 -22.085938 19.8125 -20.144531 19.8125 -17.59375 C 19.8125 -15.039062 19 -13.039062 17.375 -11.59375 C 15.75 -10.144531 13.664062 -9.421875 11.125 -9.421875 L 7.640625 -9.421875 L 7.640625 0 L 1.84375 0 Z M 7.640625 -14.046875 L 9.28125 -14.046875 C 10.570312 -14.046875 11.632812 -14.304688 12.46875 -14.828125 C 13.300781 -15.359375 13.71875 -16.21875 13.71875 -17.40625 C 13.71875 -18.625 13.300781 -19.492188 12.46875 -20.015625 C 11.632812 -20.535156 10.570312 -20.796875 9.28125 -20.796875 L 7.640625 -20.796875 Z M 7.640625 -14.046875"/></g></g></g><g fill-opacity="1" fill="#2b2b2b"><g transform="translate(261.292112, 181.356077)"><g><path d="M 14.765625 -25.421875 L 25.015625 0 L 18.796875 0 L 16.921875 -5.078125 L 7.234375 -5.078125 L 5.359375 0 L -0.859375 0 L 9.390625 -25.421875 Z M 14.9375 -10.171875 L 12.109375 -17.5625 L 12.046875 -17.5625 L 9.21875 -10.171875 Z M 14.9375 -10.171875"/></g></g></g><g fill-opacity="1" fill="#2b2b2b"><g transform="translate(285.441065, 181.356077)"><g><path d="M -0.921875 -25.421875 L 6.046875 -25.421875 L 11.34375 -17.28125 L 16.640625 -25.421875 L 23.609375 -25.421875 L 14.234375 -11.40625 L 14.234375 0 L 8.4375 0 L 8.4375 -11.40625 Z M -0.921875 -25.421875"/></g></g></g><g clip-path="url(#d97a5f2f9c)"><path fill-rule="evenodd" fill-opacity="1" d="M 107.066406 159.667969 L 121.460938 159.667969 C 125.074219 159.667969 125.074219 154.121094 121.460938 154.121094 L 83.011719 154.121094 C 79.398438 154.121094 79.398438 148.574219 83.011719 148.574219 L 100.773438 148.574219 C 104.386719 148.574219 104.261719 143.339844 101.269531 143.089844 L 91.113281 143.089844 C 87.5 143.089844 87.5 137.542969 91.113281 137.542969 L 93.792969 137.542969 C 94.726562 137.417969 95.910156 136.234375 95.910156 134.863281 C 95.910156 133.492188 94.914062 132.371094 93.605469 132.125 L 83.761719 132.125 C 80.144531 132.125 80.144531 126.578125 83.761719 126.578125 L 94.105469 126.578125 C 97.71875 126.578125 97.59375 121.34375 94.601562 121.09375 L 72.917969 121.09375 C 69.304688 121.09375 69.304688 115.546875 72.917969 115.546875 L 104.386719 115.609375 C 105.820312 115.796875 107.003906 116.542969 107.8125 117.789062 L 126.070312 146.019531 C 128.003906 149.011719 132.367188 149.011719 134.359375 146.019531 L 152.804688 117.789062 C 153.738281 116.359375 155.234375 115.546875 156.917969 115.546875 L 173.304688 115.546875 C 177.292969 115.546875 179.601562 119.972656 177.355469 123.273438 L 146.574219 168.265625 C 145.390625 169.949219 145.390625 172.128906 146.574219 173.8125 L 179.039062 221.417969 C 181.28125 224.722656 178.914062 229.148438 174.988281 229.148438 L 157.789062 229.148438 C 156.046875 229.148438 154.613281 228.335938 153.675781 226.902344 L 133.738281 196.492188 C 131.804688 193.503906 127.441406 193.503906 125.511719 196.492188 L 105.445312 226.964844 C 104.511719 228.398438 103.015625 229.210938 101.332031 229.210938 L 77.777344 229.210938 C 77.34375 227.589844 78.527344 225.90625 80.207031 225.78125 L 84.257812 225.78125 C 87.871094 225.78125 87.871094 220.234375 84.257812 220.234375 L 71.296875 220.234375 C 67.683594 220.234375 67.683594 214.691406 71.296875 214.691406 L 90.179688 214.691406 C 93.792969 214.691406 93.792969 209.144531 90.179688 209.144531 C 88.246094 209.144531 84.882812 209.578125 84.882812 206.402344 C 84.882812 204.90625 86.128906 203.660156 87.625 203.660156 L 103.761719 203.660156 C 107.378906 203.660156 107.378906 198.113281 103.761719 198.113281 L 92.546875 198.113281 C 88.933594 198.113281 88.933594 192.566406 92.546875 192.566406 L 111.117188 192.566406 C 114.730469 192.566406 114.730469 187.023438 111.117188 187.023438 L 98.15625 187.023438 C 94.539062 187.023438 94.539062 181.476562 98.15625 181.476562 C 105.320312 181.476562 112.488281 181.476562 119.652344 181.476562 C 123.269531 181.476562 123.269531 175.929688 119.652344 175.929688 L 110.992188 175.929688 C 107.378906 175.929688 107.378906 170.382812 110.992188 170.382812 L 114.046875 170.382812 C 117.472656 170.011719 117.222656 164.902344 113.734375 164.902344 C 110.367188 164.902344 107.003906 164.902344 103.636719 164.902344 C 100.023438 164.902344 100.023438 159.355469 103.636719 159.355469 L 107.066406 159.355469 Z M 96.097656 170.757812 L 103.761719 170.757812 C 107.378906 170.757812 107.378906 176.304688 103.761719 176.304688 L 96.097656 176.304688 C 92.421875 176.242188 92.421875 170.757812 96.097656 170.757812 Z M 69.488281 137.667969 L 82.390625 137.667969 C 86.003906 137.667969 86.003906 143.214844 82.390625 143.214844 L 69.488281 143.214844 C 65.8125 143.152344 65.8125 137.667969 69.488281 137.667969 Z M 64.253906 115.734375 C 65.75 115.734375 68.804688 115.484375 68.804688 118.476562 C 68.804688 121.46875 65.75 121.21875 64.253906 121.21875 C 60.578125 121.28125 60.578125 115.734375 64.253906 115.734375 Z M 86.8125 181.789062 C 88.996094 181.789062 92.796875 181.226562 92.796875 184.53125 C 92.796875 187.832031 88.996094 187.269531 86.8125 187.269531 C 83.136719 187.269531 83.136719 181.789062 86.8125 181.789062 Z M 80.519531 159.667969 L 94.105469 159.667969 C 97.71875 159.667969 97.71875 165.210938 94.105469 165.210938 L 80.519531 165.210938 C 76.90625 165.210938 76.90625 159.667969 80.519531 159.667969 Z M 65.6875 192.816406 L 84.882812 192.816406 C 88.496094 192.816406 88.496094 198.363281 84.882812 198.363281 L 65.6875 198.363281 C 62.011719 198.363281 62.011719 192.816406 65.6875 192.816406 Z M 75.222656 203.847656 L 80.332031 203.847656 C 83.945312 203.847656 83.945312 209.394531 80.332031 209.394531 L 75.222656 209.394531 C 71.609375 209.394531 71.609375 203.847656 75.222656 203.847656 Z M 75.222656 203.847656" fill="#2b2b2b"/></g><g fill-opacity="1" fill="#2b2b2b"><g transform="translate(177.873067, 198.623613)"><g><path d="M 7.5 0 L 5.734375 0 L 4.359375 -3.25 L 2.640625 -3.25 L 2.640625 0 L 0.953125 0 L 0.953125 -8.453125 L 4.515625 -8.453125 C 5.179688 -8.453125 5.726562 -8.34375 6.15625 -8.125 C 6.59375 -7.914062 6.910156 -7.617188 7.109375 -7.234375 C 7.316406 -6.859375 7.421875 -6.421875 7.421875 -5.921875 C 7.421875 -5.484375 7.347656 -5.109375 7.203125 -4.796875 C 7.066406 -4.492188 6.882812 -4.238281 6.65625 -4.03125 C 6.4375 -3.832031 6.195312 -3.671875 5.9375 -3.546875 Z M 4.203125 -4.5625 C 4.660156 -4.5625 5.019531 -4.6875 5.28125 -4.9375 C 5.550781 -5.1875 5.6875 -5.503906 5.6875 -5.890625 C 5.6875 -6.273438 5.554688 -6.578125 5.296875 -6.796875 C 5.046875 -7.023438 4.722656 -7.140625 4.328125 -7.140625 L 2.640625 -7.140625 L 2.640625 -4.5625 Z M 4.203125 -4.5625"/></g></g></g><g fill-opacity="1" fill="#2b2b2b"><g transform="translate(185.049457, 198.623613)"><g><path d="M 2.140625 -2.625 C 2.128906 -2.320312 2.175781 -2.054688 2.28125 -1.828125 C 2.382812 -1.597656 2.53125 -1.421875 2.71875 -1.296875 C 2.914062 -1.171875 3.148438 -1.109375 3.421875 -1.109375 C 3.710938 -1.109375 3.96875 -1.171875 4.1875 -1.296875 C 4.40625 -1.421875 4.554688 -1.628906 4.640625 -1.921875 L 6.1875 -1.921875 C 6.113281 -1.492188 5.941406 -1.125 5.671875 -0.8125 C 5.398438 -0.507812 5.066406 -0.28125 4.671875 -0.125 C 4.285156 0.03125 3.878906 0.109375 3.453125 0.109375 C 2.859375 0.109375 2.332031 -0.015625 1.875 -0.265625 C 1.425781 -0.515625 1.070312 -0.867188 0.8125 -1.328125 C 0.5625 -1.785156 0.4375 -2.328125 0.4375 -2.953125 C 0.4375 -3.554688 0.550781 -4.097656 0.78125 -4.578125 C 1.019531 -5.066406 1.359375 -5.453125 1.796875 -5.734375 C 2.234375 -6.015625 2.757812 -6.15625 3.375 -6.15625 C 3.988281 -6.15625 4.503906 -6.023438 4.921875 -5.765625 C 5.335938 -5.503906 5.648438 -5.144531 5.859375 -4.6875 C 6.078125 -4.226562 6.1875 -3.695312 6.1875 -3.09375 L 6.1875 -2.625 Z M 2.125 -3.640625 L 4.59375 -3.640625 C 4.59375 -3.890625 4.546875 -4.113281 4.453125 -4.3125 C 4.367188 -4.507812 4.234375 -4.664062 4.046875 -4.78125 C 3.867188 -4.90625 3.644531 -4.96875 3.375 -4.96875 C 3.101562 -4.96875 2.875 -4.90625 2.6875 -4.78125 C 2.507812 -4.65625 2.367188 -4.488281 2.265625 -4.28125 C 2.171875 -4.082031 2.125 -3.867188 2.125 -3.640625 Z M 2.125 -3.640625"/></g></g></g><g fill-opacity="1" fill="#2b2b2b"><g transform="translate(190.735604, 198.623613)"><g><path d="M 2.65625 0.109375 C 2.21875 0.109375 1.863281 0.0546875 1.59375 -0.046875 C 1.332031 -0.148438 1.140625 -0.289062 1.015625 -0.46875 C 0.890625 -0.644531 0.8125 -0.835938 0.78125 -1.046875 C 0.75 -1.265625 0.734375 -1.476562 0.734375 -1.6875 L 0.734375 -8.6875 L 2.40625 -8.6875 L 2.40625 -1.90625 C 2.40625 -1.6875 2.453125 -1.503906 2.546875 -1.359375 C 2.640625 -1.222656 2.816406 -1.140625 3.078125 -1.109375 L 3.375 -1.09375 L 3.375 -0.046875 C 3.257812 -0.00390625 3.140625 0.03125 3.015625 0.0625 C 2.890625 0.09375 2.769531 0.109375 2.65625 0.109375 Z M 2.65625 0.109375"/></g></g></g><g fill-opacity="1" fill="#2b2b2b"><g transform="translate(193.575679, 198.623613)"><g><path d="M 2.453125 -6.046875 L 2.453125 0 L 0.8125 0 L 0.8125 -6.046875 Z M 2.46875 -8.4375 L 2.46875 -6.90625 L 0.8125 -6.90625 L 0.8125 -8.4375 Z M 2.46875 -8.4375"/></g></g></g><g fill-opacity="1" fill="#2b2b2b"><g transform="translate(195.883938, 198.623613)"><g><path d="M 2.484375 0.109375 C 2.097656 0.109375 1.75 0.0390625 1.4375 -0.09375 C 1.132812 -0.238281 0.890625 -0.445312 0.703125 -0.71875 C 0.523438 -1 0.4375 -1.335938 0.4375 -1.734375 C 0.4375 -2.390625 0.679688 -2.890625 1.171875 -3.234375 C 1.671875 -3.578125 2.457031 -3.757812 3.53125 -3.78125 L 4.28125 -3.78125 L 4.28125 -4.15625 C 4.28125 -4.425781 4.195312 -4.632812 4.03125 -4.78125 C 3.875 -4.9375 3.628906 -5.015625 3.296875 -5.015625 C 3.046875 -5.003906 2.804688 -4.941406 2.578125 -4.828125 C 2.359375 -4.710938 2.207031 -4.519531 2.125 -4.25 L 0.703125 -4.25 C 0.722656 -4.675781 0.847656 -5.03125 1.078125 -5.3125 C 1.304688 -5.601562 1.617188 -5.816406 2.015625 -5.953125 C 2.410156 -6.085938 2.859375 -6.15625 3.359375 -6.15625 C 3.984375 -6.15625 4.484375 -6.078125 4.859375 -5.921875 C 5.234375 -5.773438 5.503906 -5.554688 5.671875 -5.265625 C 5.835938 -4.984375 5.921875 -4.644531 5.921875 -4.25 L 5.921875 0 L 4.5 0 L 4.359375 -1.046875 C 4.148438 -0.609375 3.890625 -0.304688 3.578125 -0.140625 C 3.265625 0.0234375 2.898438 0.109375 2.484375 0.109375 Z M 3.0625 -1 C 3.21875 -1 3.367188 -1.023438 3.515625 -1.078125 C 3.660156 -1.140625 3.789062 -1.21875 3.90625 -1.3125 C 4.019531 -1.40625 4.109375 -1.515625 4.171875 -1.640625 C 4.242188 -1.765625 4.28125 -1.890625 4.28125 -2.015625 L 4.28125 -2.90625 L 3.671875 -2.90625 C 3.390625 -2.894531 3.125 -2.859375 2.875 -2.796875 C 2.625 -2.734375 2.425781 -2.628906 2.28125 -2.484375 C 2.132812 -2.335938 2.0625 -2.144531 2.0625 -1.90625 C 2.0625 -1.625 2.15625 -1.398438 2.34375 -1.234375 C 2.539062 -1.078125 2.78125 -1 3.0625 -1 Z M 3.0625 -1"/></g></g></g><g fill-opacity="1" fill="#2b2b2b"><g transform="translate(201.628524, 198.623613)"><g><path d="M 4.09375 0.109375 C 3.789062 0.109375 3.53125 0.0703125 3.3125 0 C 3.09375 -0.0703125 2.90625 -0.175781 2.75 -0.3125 C 2.601562 -0.445312 2.484375 -0.59375 2.390625 -0.75 C 2.296875 -0.90625 2.21875 -1.066406 2.15625 -1.234375 L 1.96875 0 L 0.734375 0 L 0.734375 -8.6875 L 2.4375 -8.6875 L 2.4375 -5.21875 C 2.507812 -5.351562 2.601562 -5.472656 2.71875 -5.578125 C 2.84375 -5.691406 2.984375 -5.789062 3.140625 -5.875 C 3.296875 -5.96875 3.46875 -6.035156 3.65625 -6.078125 C 3.84375 -6.128906 4.046875 -6.15625 4.265625 -6.15625 C 5.015625 -6.15625 5.601562 -5.882812 6.03125 -5.34375 C 6.457031 -4.800781 6.671875 -4.039062 6.671875 -3.0625 C 6.671875 -2.414062 6.570312 -1.851562 6.375 -1.375 C 6.175781 -0.90625 5.882812 -0.539062 5.5 -0.28125 C 5.125 -0.0195312 4.65625 0.109375 4.09375 0.109375 Z M 3.71875 -1.109375 C 4.082031 -1.109375 4.382812 -1.257812 4.625 -1.5625 C 4.875 -1.863281 5 -2.367188 5 -3.078125 C 5 -3.703125 4.882812 -4.164062 4.65625 -4.46875 C 4.425781 -4.769531 4.109375 -4.921875 3.703125 -4.921875 C 3.421875 -4.921875 3.1875 -4.851562 3 -4.71875 C 2.8125 -4.582031 2.671875 -4.378906 2.578125 -4.109375 C 2.492188 -3.835938 2.445312 -3.492188 2.4375 -3.078125 C 2.4375 -2.367188 2.539062 -1.863281 2.75 -1.5625 C 2.96875 -1.257812 3.289062 -1.109375 3.71875 -1.109375 Z M 3.71875 -1.109375"/></g></g></g><g fill-opacity="1" fill="#2b2b2b"><g transform="translate(207.74129, 198.623613)"><g><path d="M 2.65625 0.109375 C 2.21875 0.109375 1.863281 0.0546875 1.59375 -0.046875 C 1.332031 -0.148438 1.140625 -0.289062 1.015625 -0.46875 C 0.890625 -0.644531 0.8125 -0.835938 0.78125 -1.046875 C 0.75 -1.265625 0.734375 -1.476562 0.734375 -1.6875 L 0.734375 -8.6875 L 2.40625 -8.6875 L 2.40625 -1.90625 C 2.40625 -1.6875 2.453125 -1.503906 2.546875 -1.359375 C 2.640625 -1.222656 2.816406 -1.140625 3.078125 -1.109375 L 3.375 -1.09375 L 3.375 -0.046875 C 3.257812 -0.00390625 3.140625 0.03125 3.015625 0.0625 C 2.890625 0.09375 2.769531 0.109375 2.65625 0.109375 Z M 2.65625 0.109375"/></g></g></g><g fill-opacity="1" fill="#2b2b2b"><g transform="translate(210.581363, 198.623613)"><g><path d="M 2.140625 -2.625 C 2.128906 -2.320312 2.175781 -2.054688 2.28125 -1.828125 C 2.382812 -1.597656 2.53125 -1.421875 2.71875 -1.296875 C 2.914062 -1.171875 3.148438 -1.109375 3.421875 -1.109375 C 3.710938 -1.109375 3.96875 -1.171875 4.1875 -1.296875 C 4.40625 -1.421875 4.554688 -1.628906 4.640625 -1.921875 L 6.1875 -1.921875 C 6.113281 -1.492188 5.941406 -1.125 5.671875 -0.8125 C 5.398438 -0.507812 5.066406 -0.28125 4.671875 -0.125 C 4.285156 0.03125 3.878906 0.109375 3.453125 0.109375 C 2.859375 0.109375 2.332031 -0.015625 1.875 -0.265625 C 1.425781 -0.515625 1.070312 -0.867188 0.8125 -1.328125 C 0.5625 -1.785156 0.4375 -2.328125 0.4375 -2.953125 C 0.4375 -3.554688 0.550781 -4.097656 0.78125 -4.578125 C 1.019531 -5.066406 1.359375 -5.453125 1.796875 -5.734375 C 2.234375 -6.015625 2.757812 -6.15625 3.375 -6.15625 C 3.988281 -6.15625 4.503906 -6.023438 4.921875 -5.765625 C 5.335938 -5.503906 5.648438 -5.144531 5.859375 -4.6875 C 6.078125 -4.226562 6.1875 -3.695312 6.1875 -3.09375 L 6.1875 -2.625 Z M 2.125 -3.640625 L 4.59375 -3.640625 C 4.59375 -3.890625 4.546875 -4.113281 4.453125 -4.3125 C 4.367188 -4.507812 4.234375 -4.664062 4.046875 -4.78125 C 3.867188 -4.90625 3.644531 -4.96875 3.375 -4.96875 C 3.101562 -4.96875 2.875 -4.90625 2.6875 -4.78125 C 2.507812 -4.65625 2.367188 -4.488281 2.265625 -4.28125 C 2.171875 -4.082031 2.125 -3.867188 2.125 -3.640625 Z M 2.125 -3.640625"/></g></g></g><g fill-opacity="1" fill="#2b2b2b"><g transform="translate(216.26751, 198.623613)"><g/></g></g><g fill-opacity="1" fill="#2b2b2b"><g transform="translate(217.786817, 198.623613)"><g><path d="M 0.953125 -8.453125 L 6.703125 -8.453125 L 6.6875 -7.03125 L 2.671875 -7.03125 L 2.671875 -4.90625 L 6.15625 -4.90625 L 6.15625 -3.5 L 2.671875 -3.5 L 2.671875 0 L 0.953125 0 Z M 0.953125 -8.453125"/></g></g></g><g fill-opacity="1" fill="#2b2b2b"><g transform="translate(223.99893, 198.623613)"><g><path d="M 2.453125 -6.046875 L 2.453125 0 L 0.8125 0 L 0.8125 -6.046875 Z M 2.46875 -8.4375 L 2.46875 -6.90625 L 0.8125 -6.90625 L 0.8125 -8.4375 Z M 2.46875 -8.4375"/></g></g></g><g fill-opacity="1" fill="#2b2b2b"><g transform="translate(226.307189, 198.623613)"><g><path d="M 0.734375 0 L 0.734375 -6.046875 L 2.40625 -6.046875 L 2.40625 -5.1875 C 2.5 -5.332031 2.617188 -5.472656 2.765625 -5.609375 C 2.921875 -5.753906 3.113281 -5.867188 3.34375 -5.953125 C 3.570312 -6.046875 3.84375 -6.09375 4.15625 -6.09375 C 4.53125 -6.09375 4.878906 -6.019531 5.203125 -5.875 C 5.523438 -5.726562 5.785156 -5.5 5.984375 -5.1875 C 6.179688 -4.882812 6.28125 -4.484375 6.28125 -3.984375 L 6.28125 0 L 4.5625 0 L 4.5625 -3.78125 C 4.5625 -4.101562 4.460938 -4.34375 4.265625 -4.5 C 4.078125 -4.664062 3.84375 -4.75 3.5625 -4.75 C 3.375 -4.75 3.191406 -4.71875 3.015625 -4.65625 C 2.847656 -4.59375 2.707031 -4.492188 2.59375 -4.359375 C 2.488281 -4.222656 2.4375 -4.0625 2.4375 -3.875 L 2.4375 0 Z M 0.734375 0"/></g></g></g><g fill-opacity="1" fill="#2b2b2b"><g transform="translate(232.2797, 198.623613)"><g><path d="M 2.484375 0.109375 C 2.097656 0.109375 1.75 0.0390625 1.4375 -0.09375 C 1.132812 -0.238281 0.890625 -0.445312 0.703125 -0.71875 C 0.523438 -1 0.4375 -1.335938 0.4375 -1.734375 C 0.4375 -2.390625 0.679688 -2.890625 1.171875 -3.234375 C 1.671875 -3.578125 2.457031 -3.757812 3.53125 -3.78125 L 4.28125 -3.78125 L 4.28125 -4.15625 C 4.28125 -4.425781 4.195312 -4.632812 4.03125 -4.78125 C 3.875 -4.9375 3.628906 -5.015625 3.296875 -5.015625 C 3.046875 -5.003906 2.804688 -4.941406 2.578125 -4.828125 C 2.359375 -4.710938 2.207031 -4.519531 2.125 -4.25 L 0.703125 -4.25 C 0.722656 -4.675781 0.847656 -5.03125 1.078125 -5.3125 C 1.304688 -5.601562 1.617188 -5.816406 2.015625 -5.953125 C 2.410156 -6.085938 2.859375 -6.15625 3.359375 -6.15625 C 3.984375 -6.15625 4.484375 -6.078125 4.859375 -5.921875 C 5.234375 -5.773438 5.503906 -5.554688 5.671875 -5.265625 C 5.835938 -4.984375 5.921875 -4.644531 5.921875 -4.25 L 5.921875 0 L 4.5 0 L 4.359375 -1.046875 C 4.148438 -0.609375 3.890625 -0.304688 3.578125 -0.140625 C 3.265625 0.0234375 2.898438 0.109375 2.484375 0.109375 Z M 3.0625 -1 C 3.21875 -1 3.367188 -1.023438 3.515625 -1.078125 C 3.660156 -1.140625 3.789062 -1.21875 3.90625 -1.3125 C 4.019531 -1.40625 4.109375 -1.515625 4.171875 -1.640625 C 4.242188 -1.765625 4.28125 -1.890625 4.28125 -2.015625 L 4.28125 -2.90625 L 3.671875 -2.90625 C 3.390625 -2.894531 3.125 -2.859375 2.875 -2.796875 C 2.625 -2.734375 2.425781 -2.628906 2.28125 -2.484375 C 2.132812 -2.335938 2.0625 -2.144531 2.0625 -1.90625 C 2.0625 -1.625 2.15625 -1.398438 2.34375 -1.234375 C 2.539062 -1.078125 2.78125 -1 3.0625 -1 Z M 3.0625 -1"/></g></g></g><g fill-opacity="1" fill="#2b2b2b"><g transform="translate(238.024289, 198.623613)"><g><path d="M 0.734375 0 L 0.734375 -6.046875 L 2.40625 -6.046875 L 2.40625 -5.1875 C 2.5 -5.332031 2.617188 -5.472656 2.765625 -5.609375 C 2.921875 -5.753906 3.113281 -5.867188 3.34375 -5.953125 C 3.570312 -6.046875 3.84375 -6.09375 4.15625 -6.09375 C 4.53125 -6.09375 4.878906 -6.019531 5.203125 -5.875 C 5.523438 -5.726562 5.785156 -5.5 5.984375 -5.1875 C 6.179688 -4.882812 6.28125 -4.484375 6.28125 -3.984375 L 6.28125 0 L 4.5625 0 L 4.5625 -3.78125 C 4.5625 -4.101562 4.460938 -4.34375 4.265625 -4.5 C 4.078125 -4.664062 3.84375 -4.75 3.5625 -4.75 C 3.375 -4.75 3.191406 -4.71875 3.015625 -4.65625 C 2.847656 -4.59375 2.707031 -4.492188 2.59375 -4.359375 C 2.488281 -4.222656 2.4375 -4.0625 2.4375 -3.875 L 2.4375 0 Z M 0.734375 0"/></g></g></g><g fill-opacity="1" fill="#2b2b2b"><g transform="translate(243.996797, 198.623613)"><g><path d="M 3.3125 -6.15625 C 3.820312 -6.15625 4.257812 -6.050781 4.625 -5.84375 C 5 -5.644531 5.289062 -5.367188 5.5 -5.015625 C 5.707031 -4.660156 5.828125 -4.269531 5.859375 -3.84375 L 4.453125 -3.84375 C 4.421875 -4 4.363281 -4.15625 4.28125 -4.3125 C 4.195312 -4.46875 4.078125 -4.597656 3.921875 -4.703125 C 3.765625 -4.804688 3.566406 -4.859375 3.328125 -4.859375 C 2.929688 -4.859375 2.609375 -4.703125 2.359375 -4.390625 C 2.117188 -4.085938 2 -3.628906 2 -3.015625 C 2 -2.421875 2.117188 -1.953125 2.359375 -1.609375 C 2.597656 -1.265625 2.929688 -1.09375 3.359375 -1.09375 C 3.585938 -1.09375 3.78125 -1.148438 3.9375 -1.265625 C 4.09375 -1.378906 4.210938 -1.515625 4.296875 -1.671875 C 4.378906 -1.828125 4.4375 -1.972656 4.46875 -2.109375 L 5.84375 -2.109375 C 5.820312 -1.691406 5.703125 -1.3125 5.484375 -0.96875 C 5.273438 -0.632812 4.984375 -0.367188 4.609375 -0.171875 C 4.242188 0.015625 3.8125 0.109375 3.3125 0.109375 C 2.757812 0.109375 2.257812 -0.0078125 1.8125 -0.25 C 1.375 -0.5 1.03125 -0.859375 0.78125 -1.328125 C 0.53125 -1.796875 0.40625 -2.351562 0.40625 -3 C 0.40625 -3.625 0.523438 -4.171875 0.765625 -4.640625 C 1.003906 -5.117188 1.34375 -5.488281 1.78125 -5.75 C 2.21875 -6.019531 2.726562 -6.15625 3.3125 -6.15625 Z M 3.3125 -6.15625"/></g></g></g><g fill-opacity="1" fill="#2b2b2b"><g transform="translate(249.349829, 198.623613)"><g><path d="M 2.453125 -6.046875 L 2.453125 0 L 0.8125 0 L 0.8125 -6.046875 Z M 2.46875 -8.4375 L 2.46875 -6.90625 L 0.8125 -6.90625 L 0.8125 -8.4375 Z M 2.46875 -8.4375"/></g></g></g><g fill-opacity="1" fill="#2b2b2b"><g transform="translate(251.658088, 198.623613)"><g><path d="M 2.484375 0.109375 C 2.097656 0.109375 1.75 0.0390625 1.4375 -0.09375 C 1.132812 -0.238281 0.890625 -0.445312 0.703125 -0.71875 C 0.523438 -1 0.4375 -1.335938 0.4375 -1.734375 C 0.4375 -2.390625 0.679688 -2.890625 1.171875 -3.234375 C 1.671875 -3.578125 2.457031 -3.757812 3.53125 -3.78125 L 4.28125 -3.78125 L 4.28125 -4.15625 C 4.28125 -4.425781 4.195312 -4.632812 4.03125 -4.78125 C 3.875 -4.9375 3.628906 -5.015625 3.296875 -5.015625 C 3.046875 -5.003906 2.804688 -4.941406 2.578125 -4.828125 C 2.359375 -4.710938 2.207031 -4.519531 2.125 -4.25 L 0.703125 -4.25 C 0.722656 -4.675781 0.847656 -5.03125 1.078125 -5.3125 C 1.304688 -5.601562 1.617188 -5.816406 2.015625 -5.953125 C 2.410156 -6.085938 2.859375 -6.15625 3.359375 -6.15625 C 3.984375 -6.15625 4.484375 -6.078125 4.859375 -5.921875 C 5.234375 -5.773438 5.503906 -5.554688 5.671875 -5.265625 C 5.835938 -4.984375 5.921875 -4.644531 5.921875 -4.25 L 5.921875 0 L 4.5 0 L 4.359375 -1.046875 C 4.148438 -0.609375 3.890625 -0.304688 3.578125 -0.140625 C 3.265625 0.0234375 2.898438 0.109375 2.484375 0.109375 Z M 3.0625 -1 C 3.21875 -1 3.367188 -1.023438 3.515625 -1.078125 C 3.660156 -1.140625 3.789062 -1.21875 3.90625 -1.3125 C 4.019531 -1.40625 4.109375 -1.515625 4.171875 -1.640625 C 4.242188 -1.765625 4.28125 -1.890625 4.28125 -2.015625 L 4.28125 -2.90625 L 3.671875 -2.90625 C 3.390625 -2.894531 3.125 -2.859375 2.875 -2.796875 C 2.625 -2.734375 2.425781 -2.628906 2.28125 -2.484375 C 2.132812 -2.335938 2.0625 -2.144531 2.0625 -1.90625 C 2.0625 -1.625 2.15625 -1.398438 2.34375 -1.234375 C 2.539062 -1.078125 2.78125 -1 3.0625 -1 Z M 3.0625 -1"/></g></g></g><g fill-opacity="1" fill="#2b2b2b"><g transform="translate(257.402677, 198.623613)"><g><path d="M 2.65625 0.109375 C 2.21875 0.109375 1.863281 0.0546875 1.59375 -0.046875 C 1.332031 -0.148438 1.140625 -0.289062 1.015625 -0.46875 C 0.890625 -0.644531 0.8125 -0.835938 0.78125 -1.046875 C 0.75 -1.265625 0.734375 -1.476562 0.734375 -1.6875 L 0.734375 -8.6875 L 2.40625 -8.6875 L 2.40625 -1.90625 C 2.40625 -1.6875 2.453125 -1.503906 2.546875 -1.359375 C 2.640625 -1.222656 2.816406 -1.140625 3.078125 -1.109375 L 3.375 -1.09375 L 3.375 -0.046875 C 3.257812 -0.00390625 3.140625 0.03125 3.015625 0.0625 C 2.890625 0.09375 2.769531 0.109375 2.65625 0.109375 Z M 2.65625 0.109375"/></g></g></g><g fill-opacity="1" fill="#2b2b2b"><g transform="translate(260.244647, 198.623613)"><g/></g></g><g fill-opacity="1" fill="#2b2b2b"><g transform="translate(261.763955, 198.623613)"><g/></g></g><g fill-opacity="1" fill="#2b2b2b"><g transform="translate(263.286454, 198.623613)"><g><path d="M 4.125 0.109375 C 3.707031 0.109375 3.296875 0.0546875 2.890625 -0.046875 C 2.492188 -0.148438 2.128906 -0.304688 1.796875 -0.515625 C 1.460938 -0.722656 1.1875 -0.984375 0.96875 -1.296875 C 0.757812 -1.617188 0.628906 -1.988281 0.578125 -2.40625 L 2.328125 -2.40625 C 2.390625 -2.15625 2.5 -1.941406 2.65625 -1.765625 C 2.820312 -1.585938 3.03125 -1.453125 3.28125 -1.359375 C 3.53125 -1.265625 3.804688 -1.21875 4.109375 -1.21875 C 4.421875 -1.21875 4.707031 -1.253906 4.96875 -1.328125 C 5.226562 -1.410156 5.429688 -1.53125 5.578125 -1.6875 C 5.734375 -1.84375 5.8125 -2.039062 5.8125 -2.28125 C 5.8125 -2.5 5.75 -2.675781 5.625 -2.8125 C 5.5 -2.945312 5.328125 -3.054688 5.109375 -3.140625 C 4.898438 -3.222656 4.660156 -3.296875 4.390625 -3.359375 L 2.921875 -3.65625 C 2.285156 -3.769531 1.78125 -4.019531 1.40625 -4.40625 C 1.03125 -4.800781 0.835938 -5.320312 0.828125 -5.96875 C 0.828125 -6.5 0.96875 -6.957031 1.25 -7.34375 C 1.539062 -7.726562 1.929688 -8.023438 2.421875 -8.234375 C 2.910156 -8.453125 3.460938 -8.5625 4.078125 -8.5625 C 4.804688 -8.5625 5.414062 -8.445312 5.90625 -8.21875 C 6.40625 -7.988281 6.785156 -7.675781 7.046875 -7.28125 C 7.304688 -6.894531 7.441406 -6.46875 7.453125 -6 L 5.734375 -6 C 5.703125 -6.289062 5.613281 -6.523438 5.46875 -6.703125 C 5.320312 -6.878906 5.128906 -7.003906 4.890625 -7.078125 C 4.660156 -7.160156 4.398438 -7.203125 4.109375 -7.203125 C 3.878906 -7.203125 3.671875 -7.175781 3.484375 -7.125 C 3.304688 -7.070312 3.148438 -7 3.015625 -6.90625 C 2.890625 -6.8125 2.789062 -6.703125 2.71875 -6.578125 C 2.65625 -6.460938 2.625 -6.328125 2.625 -6.171875 C 2.625 -5.921875 2.703125 -5.71875 2.859375 -5.5625 C 3.023438 -5.414062 3.332031 -5.289062 3.78125 -5.1875 L 5.234375 -4.890625 C 5.742188 -4.796875 6.148438 -4.648438 6.453125 -4.453125 C 6.765625 -4.253906 7 -4.03125 7.15625 -3.78125 C 7.3125 -3.53125 7.410156 -3.273438 7.453125 -3.015625 C 7.503906 -2.753906 7.53125 -2.515625 7.53125 -2.296875 C 7.53125 -1.835938 7.382812 -1.425781 7.09375 -1.0625 C 6.8125 -0.695312 6.414062 -0.410156 5.90625 -0.203125 C 5.394531 0.00390625 4.800781 0.109375 4.125 0.109375 Z M 4.125 0.109375"/></g></g></g><g fill-opacity="1" fill="#2b2b2b"><g transform="translate(270.433623, 198.623613)"><g><path d="M 3.328125 0.109375 C 2.734375 0.109375 2.21875 -0.015625 1.78125 -0.265625 C 1.34375 -0.515625 1.003906 -0.867188 0.765625 -1.328125 C 0.523438 -1.796875 0.40625 -2.347656 0.40625 -2.984375 C 0.40625 -3.617188 0.523438 -4.171875 0.765625 -4.640625 C 1.003906 -5.117188 1.34375 -5.488281 1.78125 -5.75 C 2.21875 -6.019531 2.734375 -6.15625 3.328125 -6.15625 C 3.921875 -6.15625 4.4375 -6.023438 4.875 -5.765625 C 5.3125 -5.503906 5.648438 -5.132812 5.890625 -4.65625 C 6.128906 -4.1875 6.25 -3.628906 6.25 -2.984375 C 6.25 -2.378906 6.128906 -1.84375 5.890625 -1.375 C 5.660156 -0.90625 5.328125 -0.539062 4.890625 -0.28125 C 4.460938 -0.0195312 3.941406 0.109375 3.328125 0.109375 Z M 3.328125 -1.15625 C 3.628906 -1.15625 3.867188 -1.238281 4.046875 -1.40625 C 4.234375 -1.582031 4.367188 -1.8125 4.453125 -2.09375 C 4.535156 -2.382812 4.578125 -2.703125 4.578125 -3.046875 C 4.578125 -3.367188 4.539062 -3.671875 4.46875 -3.953125 C 4.394531 -4.234375 4.265625 -4.460938 4.078125 -4.640625 C 3.890625 -4.816406 3.640625 -4.90625 3.328125 -4.90625 C 3.023438 -4.90625 2.78125 -4.820312 2.59375 -4.65625 C 2.414062 -4.488281 2.28125 -4.265625 2.1875 -3.984375 C 2.101562 -3.703125 2.0625 -3.390625 2.0625 -3.046875 C 2.0625 -2.734375 2.097656 -2.429688 2.171875 -2.140625 C 2.253906 -1.847656 2.390625 -1.609375 2.578125 -1.421875 C 2.765625 -1.242188 3.015625 -1.15625 3.328125 -1.15625 Z M 3.328125 -1.15625"/></g></g></g><g fill-opacity="1" fill="#2b2b2b"><g transform="translate(276.125615, 198.623613)"><g><path d="M 2.65625 0.109375 C 2.21875 0.109375 1.863281 0.0546875 1.59375 -0.046875 C 1.332031 -0.148438 1.140625 -0.289062 1.015625 -0.46875 C 0.890625 -0.644531 0.8125 -0.835938 0.78125 -1.046875 C 0.75 -1.265625 0.734375 -1.476562 0.734375 -1.6875 L 0.734375 -8.6875 L 2.40625 -8.6875 L 2.40625 -1.90625 C 2.40625 -1.6875 2.453125 -1.503906 2.546875 -1.359375 C 2.640625 -1.222656 2.816406 -1.140625 3.078125 -1.109375 L 3.375 -1.09375 L 3.375 -0.046875 C 3.257812 -0.00390625 3.140625 0.03125 3.015625 0.0625 C 2.890625 0.09375 2.769531 0.109375 2.65625 0.109375 Z M 2.65625 0.109375"/></g></g></g><g fill-opacity="1" fill="#2b2b2b"><g transform="translate(278.965691, 198.623613)"><g><path d="M 2.953125 0.109375 C 2.671875 0.109375 2.394531 0.0664062 2.125 -0.015625 C 1.851562 -0.0976562 1.609375 -0.222656 1.390625 -0.390625 C 1.171875 -0.554688 0.992188 -0.757812 0.859375 -1 C 0.722656 -1.25 0.65625 -1.535156 0.65625 -1.859375 L 0.65625 -6.046875 L 2.359375 -6.046875 L 2.359375 -2.078125 C 2.359375 -1.796875 2.445312 -1.566406 2.625 -1.390625 C 2.8125 -1.210938 3.082031 -1.125 3.4375 -1.125 C 3.769531 -1.125 4.035156 -1.207031 4.234375 -1.375 C 4.429688 -1.550781 4.53125 -1.796875 4.53125 -2.109375 L 4.53125 -6.046875 L 6.21875 -6.046875 L 6.21875 0 L 4.9375 0 L 4.734375 -1.203125 C 4.671875 -0.847656 4.539062 -0.570312 4.34375 -0.375 C 4.15625 -0.1875 3.9375 -0.0625 3.6875 0 C 3.4375 0.0703125 3.191406 0.109375 2.953125 0.109375 Z M 2.953125 0.109375"/></g></g></g><g fill-opacity="1" fill="#2b2b2b"><g transform="translate(284.885601, 198.623613)"><g><path d="M 4.40625 -4.859375 L 3.0625 -4.859375 L 3.078125 -1.640625 C 3.078125 -1.492188 3.09375 -1.382812 3.125 -1.3125 C 3.164062 -1.238281 3.226562 -1.191406 3.3125 -1.171875 C 3.394531 -1.148438 3.5 -1.140625 3.625 -1.140625 L 4.421875 -1.140625 L 4.421875 -0.078125 C 4.347656 -0.046875 4.226562 -0.015625 4.0625 0.015625 C 3.894531 0.046875 3.664062 0.0625 3.375 0.0625 C 2.84375 0.0625 2.429688 -0.00390625 2.140625 -0.140625 C 1.847656 -0.273438 1.644531 -0.460938 1.53125 -0.703125 C 1.425781 -0.953125 1.375 -1.238281 1.375 -1.5625 L 1.375 -4.859375 L 0.390625 -4.859375 L 0.390625 -6.046875 L 1.421875 -6.046875 L 1.859375 -7.859375 L 3.0625 -7.859375 L 3.0625 -6.046875 L 4.40625 -6.046875 Z M 4.40625 -4.859375"/></g></g></g><g fill-opacity="1" fill="#2b2b2b"><g transform="translate(288.865272, 198.623613)"><g><path d="M 2.453125 -6.046875 L 2.453125 0 L 0.8125 0 L 0.8125 -6.046875 Z M 2.46875 -8.4375 L 2.46875 -6.90625 L 0.8125 -6.90625 L 0.8125 -8.4375 Z M 2.46875 -8.4375"/></g></g></g><g fill-opacity="1" fill="#2b2b2b"><g transform="translate(291.173531, 198.623613)"><g><path d="M 3.328125 0.109375 C 2.734375 0.109375 2.21875 -0.015625 1.78125 -0.265625 C 1.34375 -0.515625 1.003906 -0.867188 0.765625 -1.328125 C 0.523438 -1.796875 0.40625 -2.347656 0.40625 -2.984375 C 0.40625 -3.617188 0.523438 -4.171875 0.765625 -4.640625 C 1.003906 -5.117188 1.34375 -5.488281 1.78125 -5.75 C 2.21875 -6.019531 2.734375 -6.15625 3.328125 -6.15625 C 3.921875 -6.15625 4.4375 -6.023438 4.875 -5.765625 C 5.3125 -5.503906 5.648438 -5.132812 5.890625 -4.65625 C 6.128906 -4.1875 6.25 -3.628906 6.25 -2.984375 C 6.25 -2.378906 6.128906 -1.84375 5.890625 -1.375 C 5.660156 -0.90625 5.328125 -0.539062 4.890625 -0.28125 C 4.460938 -0.0195312 3.941406 0.109375 3.328125 0.109375 Z M 3.328125 -1.15625 C 3.628906 -1.15625 3.867188 -1.238281 4.046875 -1.40625 C 4.234375 -1.582031 4.367188 -1.8125 4.453125 -2.09375 C 4.535156 -2.382812 4.578125 -2.703125 4.578125 -3.046875 C 4.578125 -3.367188 4.539062 -3.671875 4.46875 -3.953125 C 4.394531 -4.234375 4.265625 -4.460938 4.078125 -4.640625 C 3.890625 -4.816406 3.640625 -4.90625 3.328125 -4.90625 C 3.023438 -4.90625 2.78125 -4.820312 2.59375 -4.65625 C 2.414062 -4.488281 2.28125 -4.265625 2.1875 -3.984375 C 2.101562 -3.703125 2.0625 -3.390625 2.0625 -3.046875 C 2.0625 -2.734375 2.097656 -2.429688 2.171875 -2.140625 C 2.253906 -1.847656 2.390625 -1.609375 2.578125 -1.421875 C 2.765625 -1.242188 3.015625 -1.15625 3.328125 -1.15625 Z M 3.328125 -1.15625"/></g></g></g><g fill-opacity="1" fill="#2b2b2b"><g transform="translate(296.865522, 198.623613)"><g><path d="M 0.734375 0 L 0.734375 -6.046875 L 2.40625 -6.046875 L 2.40625 -5.1875 C 2.5 -5.332031 2.617188 -5.472656 2.765625 -5.609375 C 2.921875 -5.753906 3.113281 -5.867188 3.34375 -5.953125 C 3.570312 -6.046875 3.84375 -6.09375 4.15625 -6.09375 C 4.53125 -6.09375 4.878906 -6.019531 5.203125 -5.875 C 5.523438 -5.726562 5.785156 -5.5 5.984375 -5.1875 C 6.179688 -4.882812 6.28125 -4.484375 6.28125 -3.984375 L 6.28125 0 L 4.5625 0 L 4.5625 -3.78125 C 4.5625 -4.101562 4.460938 -4.34375 4.265625 -4.5 C 4.078125 -4.664062 3.84375 -4.75 3.5625 -4.75 C 3.375 -4.75 3.191406 -4.71875 3.015625 -4.65625 C 2.847656 -4.59375 2.707031 -4.492188 2.59375 -4.359375 C 2.488281 -4.222656 2.4375 -4.0625 2.4375 -3.875 L 2.4375 0 Z M 0.734375 0"/></g></g></g><g fill-opacity="1" fill="#2b2b2b"><g transform="translate(302.83803, 198.623613)"><g><path d="M 3.125 0.109375 C 2.695312 0.109375 2.289062 0.0390625 1.90625 -0.09375 C 1.519531 -0.226562 1.191406 -0.441406 0.921875 -0.734375 C 0.648438 -1.035156 0.476562 -1.425781 0.40625 -1.90625 L 1.875 -1.90625 C 1.925781 -1.6875 2.019531 -1.515625 2.15625 -1.390625 C 2.289062 -1.265625 2.441406 -1.175781 2.609375 -1.125 C 2.785156 -1.070312 2.953125 -1.046875 3.109375 -1.046875 C 3.429688 -1.046875 3.691406 -1.097656 3.890625 -1.203125 C 4.097656 -1.304688 4.203125 -1.46875 4.203125 -1.6875 C 4.203125 -1.84375 4.140625 -1.96875 4.015625 -2.0625 C 3.898438 -2.164062 3.707031 -2.242188 3.4375 -2.296875 L 2.375 -2.515625 C 1.84375 -2.628906 1.414062 -2.820312 1.09375 -3.09375 C 0.769531 -3.363281 0.601562 -3.75 0.59375 -4.25 C 0.59375 -4.613281 0.6875 -4.9375 0.875 -5.21875 C 1.070312 -5.507812 1.359375 -5.738281 1.734375 -5.90625 C 2.109375 -6.070312 2.570312 -6.15625 3.125 -6.15625 C 3.875 -6.15625 4.46875 -5.988281 4.90625 -5.65625 C 5.351562 -5.332031 5.582031 -4.875 5.59375 -4.28125 L 4.171875 -4.28125 C 4.128906 -4.519531 4.007812 -4.703125 3.8125 -4.828125 C 3.625 -4.953125 3.390625 -5.015625 3.109375 -5.015625 C 2.816406 -5.015625 2.570312 -4.960938 2.375 -4.859375 C 2.1875 -4.753906 2.09375 -4.59375 2.09375 -4.375 C 2.09375 -4.21875 2.171875 -4.09375 2.328125 -4 C 2.484375 -3.90625 2.722656 -3.828125 3.046875 -3.765625 L 4.03125 -3.546875 C 4.375 -3.460938 4.648438 -3.347656 4.859375 -3.203125 C 5.066406 -3.054688 5.226562 -2.898438 5.34375 -2.734375 C 5.46875 -2.566406 5.550781 -2.398438 5.59375 -2.234375 C 5.632812 -2.066406 5.65625 -1.914062 5.65625 -1.78125 C 5.65625 -1.375 5.546875 -1.03125 5.328125 -0.75 C 5.117188 -0.46875 4.820312 -0.253906 4.4375 -0.109375 C 4.0625 0.0351562 3.625 0.109375 3.125 0.109375 Z M 3.125 0.109375"/></g></g></g><g fill-opacity="1" fill="#2b2b2b"><g transform="translate(123.780849, 323.758435)"><g><path d="M 7.03125 0 L 5.703125 -4.703125 L 4.359375 0 L 2.234375 0 L -0.15625 -8.375 L 1.96875 -8.375 L 3.40625 -2.625 L 3.453125 -2.625 L 4.96875 -8.375 L 6.421875 -8.375 L 7.9375 -2.625 L 8 -2.625 L 9.421875 -8.375 L 11.53125 -8.375 L 9.15625 0 Z M 7.03125 0"/></g></g></g><g fill-opacity="1" fill="#2b2b2b"><g transform="translate(135.893004, 323.758435)"><g><path d="M 7.03125 0 L 5.703125 -4.703125 L 4.359375 0 L 2.234375 0 L -0.15625 -8.375 L 1.96875 -8.375 L 3.40625 -2.625 L 3.453125 -2.625 L 4.96875 -8.375 L 6.421875 -8.375 L 7.9375 -2.625 L 8 -2.625 L 9.421875 -8.375 L 11.53125 -8.375 L 9.15625 0 Z M 7.03125 0"/></g></g></g><g fill-opacity="1" fill="#2b2b2b"><g transform="translate(148.005159, 323.758435)"><g><path d="M 7.03125 0 L 5.703125 -4.703125 L 4.359375 0 L 2.234375 0 L -0.15625 -8.375 L 1.96875 -8.375 L 3.40625 -2.625 L 3.453125 -2.625 L 4.96875 -8.375 L 6.421875 -8.375 L 7.9375 -2.625 L 8 -2.625 L 9.421875 -8.375 L 11.53125 -8.375 L 9.15625 0 Z M 7.03125 0"/></g></g></g><g fill-opacity="1" fill="#2b2b2b"><g transform="translate(160.117314, 323.758435)"><g><path d="M 1.765625 -2.171875 C 2.085938 -2.171875 2.363281 -2.054688 2.59375 -1.828125 C 2.820312 -1.609375 2.9375 -1.332031 2.9375 -1 C 2.9375 -0.6875 2.820312 -0.414062 2.59375 -0.1875 C 2.363281 0.0390625 2.085938 0.15625 1.765625 0.15625 C 1.453125 0.15625 1.179688 0.0390625 0.953125 -0.1875 C 0.722656 -0.414062 0.609375 -0.6875 0.609375 -1 C 0.609375 -1.332031 0.722656 -1.609375 0.953125 -1.828125 C 1.179688 -2.054688 1.453125 -2.171875 1.765625 -2.171875 Z M 1.765625 -2.171875"/></g></g></g><g fill-opacity="1" fill="#2b2b2b"><g transform="translate(164.39883, 323.758435)"><g><path d="M 8.453125 0 L 5.984375 0 L 4 -2.859375 L 2.015625 0 L -0.34375 0 L 2.828125 -4.515625 L 0.1875 -8.375 L 2.453125 -8.375 L 4 -6.09375 L 5.546875 -8.375 L 7.921875 -8.375 L 5.171875 -4.515625 Z M 8.453125 0"/></g></g></g><g fill-opacity="1" fill="#2b2b2b"><g transform="translate(173.234692, 323.758435)"><g><path d="M 4.859375 -8.375 L 8.25 0 L 6.1875 0 L 5.578125 -1.671875 L 2.390625 -1.671875 L 1.765625 0 L -0.28125 0 L 3.09375 -8.375 Z M 4.921875 -3.34375 L 3.984375 -5.78125 L 3.96875 -5.78125 L 3.03125 -3.34375 Z M 4.921875 -3.34375"/></g></g></g><g fill-opacity="1" fill="#2b2b2b"><g transform="translate(181.928549, 323.758435)"><g><path d="M 2.515625 -5.203125 L 2.515625 0 L 0.609375 0 L 0.609375 -8.375 L 2.515625 -8.375 L 5.84375 -3.171875 L 5.875 -3.171875 L 5.875 -8.375 L 7.78125 -8.375 L 7.78125 0 L 5.875 0 L 2.53125 -5.203125 Z M 2.515625 -5.203125"/></g></g></g><g fill-opacity="1" fill="#2b2b2b"><g transform="translate(191.048432, 323.758435)"><g><path d="M 2.515625 -8.375 L 2.515625 0 L 0.609375 0 L 0.609375 -8.375 Z M 2.515625 -8.375"/></g></g></g><g fill-opacity="1" fill="#2b2b2b"><g transform="translate(194.914078, 323.758435)"><g><path d="M 0.609375 -8.375 L 3.671875 -8.375 C 4.523438 -8.375 5.210938 -8.15625 5.734375 -7.71875 C 6.265625 -7.28125 6.53125 -6.640625 6.53125 -5.796875 C 6.53125 -4.960938 6.257812 -4.304688 5.71875 -3.828125 C 5.1875 -3.347656 4.503906 -3.109375 3.671875 -3.109375 L 2.515625 -3.109375 L 2.515625 0 L 0.609375 0 Z M 2.515625 -4.625 L 3.0625 -4.625 C 3.488281 -4.625 3.835938 -4.710938 4.109375 -4.890625 C 4.378906 -5.066406 4.515625 -5.347656 4.515625 -5.734375 C 4.515625 -6.140625 4.378906 -6.425781 4.109375 -6.59375 C 3.835938 -6.769531 3.488281 -6.859375 3.0625 -6.859375 L 2.515625 -6.859375 Z M 2.515625 -4.625"/></g></g></g><g fill-opacity="1" fill="#2b2b2b"><g transform="translate(202.411027, 323.758435)"><g><path d="M 4.859375 -8.375 L 8.25 0 L 6.1875 0 L 5.578125 -1.671875 L 2.390625 -1.671875 L 1.765625 0 L -0.28125 0 L 3.09375 -8.375 Z M 4.921875 -3.34375 L 3.984375 -5.78125 L 3.96875 -5.78125 L 3.03125 -3.34375 Z M 4.921875 -3.34375"/></g></g></g><g fill-opacity="1" fill="#2b2b2b"><g transform="translate(211.104883, 323.758435)"><g><path d="M -0.296875 -8.375 L 1.984375 -8.375 L 3.734375 -5.703125 L 5.484375 -8.375 L 7.78125 -8.375 L 4.6875 -3.75 L 4.6875 0 L 2.78125 0 L 2.78125 -3.75 Z M -0.296875 -8.375"/></g></g></g><g fill-opacity="1" fill="#2b2b2b"><g transform="translate(219.311864, 323.758435)"><g><path d="M 1.765625 -2.171875 C 2.085938 -2.171875 2.363281 -2.054688 2.59375 -1.828125 C 2.820312 -1.609375 2.9375 -1.332031 2.9375 -1 C 2.9375 -0.6875 2.820312 -0.414062 2.59375 -0.1875 C 2.363281 0.0390625 2.085938 0.15625 1.765625 0.15625 C 1.453125 0.15625 1.179688 0.0390625 0.953125 -0.1875 C 0.722656 -0.414062 0.609375 -0.6875 0.609375 -1 C 0.609375 -1.332031 0.722656 -1.609375 0.953125 -1.828125 C 1.179688 -2.054688 1.453125 -2.171875 1.765625 -2.171875 Z M 1.765625 -2.171875"/></g></g></g><g fill-opacity="1" fill="#2b2b2b"><g transform="translate(223.593377, 323.758435)"><g><path d="M 5.0625 -1.71875 C 5.351562 -1.71875 5.632812 -1.757812 5.90625 -1.84375 C 6.1875 -1.9375 6.390625 -2.023438 6.515625 -2.109375 L 6.71875 -2.25 L 7.53125 -0.625 C 7.5 -0.601562 7.457031 -0.570312 7.40625 -0.53125 C 7.363281 -0.5 7.253906 -0.4375 7.078125 -0.34375 C 6.910156 -0.257812 6.726562 -0.179688 6.53125 -0.109375 C 6.332031 -0.046875 6.070312 0.0078125 5.75 0.0625 C 5.4375 0.125 5.109375 0.15625 4.765625 0.15625 C 3.992188 0.15625 3.257812 -0.0351562 2.5625 -0.421875 C 1.863281 -0.804688 1.300781 -1.332031 0.875 -2 C 0.445312 -2.664062 0.234375 -3.390625 0.234375 -4.171875 C 0.234375 -4.765625 0.359375 -5.332031 0.609375 -5.875 C 0.859375 -6.414062 1.191406 -6.878906 1.609375 -7.265625 C 2.023438 -7.648438 2.507812 -7.957031 3.0625 -8.1875 C 3.625 -8.414062 4.191406 -8.53125 4.765625 -8.53125 C 5.304688 -8.53125 5.804688 -8.460938 6.265625 -8.328125 C 6.722656 -8.203125 7.046875 -8.078125 7.234375 -7.953125 L 7.53125 -7.765625 L 6.71875 -6.140625 C 6.664062 -6.171875 6.59375 -6.21875 6.5 -6.28125 C 6.40625 -6.34375 6.210938 -6.421875 5.921875 -6.515625 C 5.640625 -6.609375 5.351562 -6.65625 5.0625 -6.65625 C 4.601562 -6.65625 4.191406 -6.578125 3.828125 -6.421875 C 3.460938 -6.273438 3.171875 -6.078125 2.953125 -5.828125 C 2.742188 -5.585938 2.582031 -5.328125 2.46875 -5.046875 C 2.363281 -4.765625 2.3125 -4.476562 2.3125 -4.1875 C 2.3125 -3.550781 2.546875 -2.976562 3.015625 -2.46875 C 3.492188 -1.96875 4.175781 -1.71875 5.0625 -1.71875 Z M 5.0625 -1.71875"/></g></g></g><g fill-opacity="1" fill="#2b2b2b"><g transform="translate(231.97279, 323.758435)"><g><path d="M 0.234375 -4.1875 C 0.234375 -5.40625 0.644531 -6.429688 1.46875 -7.265625 C 2.300781 -8.109375 3.296875 -8.53125 4.453125 -8.53125 C 5.628906 -8.53125 6.625 -8.109375 7.4375 -7.265625 C 8.257812 -6.429688 8.671875 -5.40625 8.671875 -4.1875 C 8.671875 -2.96875 8.265625 -1.9375 7.453125 -1.09375 C 6.648438 -0.257812 5.648438 0.15625 4.453125 0.15625 C 3.234375 0.15625 2.222656 -0.253906 1.421875 -1.078125 C 0.628906 -1.910156 0.234375 -2.945312 0.234375 -4.1875 Z M 2.296875 -4.1875 C 2.296875 -3.75 2.363281 -3.347656 2.5 -2.984375 C 2.632812 -2.628906 2.867188 -2.328125 3.203125 -2.078125 C 3.546875 -1.828125 3.960938 -1.703125 4.453125 -1.703125 C 5.171875 -1.703125 5.707031 -1.941406 6.0625 -2.421875 C 6.425781 -2.910156 6.609375 -3.5 6.609375 -4.1875 C 6.609375 -4.875 6.421875 -5.460938 6.046875 -5.953125 C 5.679688 -6.441406 5.148438 -6.6875 4.453125 -6.6875 C 3.765625 -6.6875 3.234375 -6.441406 2.859375 -5.953125 C 2.484375 -5.460938 2.296875 -4.875 2.296875 -4.1875 Z M 2.296875 -4.1875"/></g></g></g><g fill-opacity="1" fill="#2b2b2b"><g transform="translate(241.609977, 323.758435)"><g><path d="M 7.53125 0 L 7.140625 -4.96875 L 7.09375 -4.96875 L 5.375 -0.046875 L 4.234375 -0.046875 L 2.515625 -4.96875 L 2.46875 -4.96875 L 2.078125 0 L 0.15625 0 L 0.90625 -8.375 L 2.9375 -8.375 L 4.796875 -3.546875 L 6.65625 -8.375 L 8.6875 -8.375 L 9.4375 0 Z M 7.53125 0"/></g></g></g></svg>